<svg width="18" height="24" viewBox="0 0 18 24" fill="none" xmlns="http://www.w3.org/2000/svg">
  <path d="M9.00001 12C10.1867 12 11.3467 11.6481 12.3334 10.9888C13.3201 10.3295 14.0892 9.39246 14.5433 8.2961C14.9974 7.19975 15.1162 5.99335 14.8847 4.82946C14.6532 3.66558 14.0818 2.59648 13.2427 1.75736C12.4035 0.918247 11.3344 0.346802 10.1706 0.115291C9.00666 -0.11622 7.80026 0.00259972 6.70391 0.456726C5.60755 0.910851 4.67048 1.67989 4.01119 2.66658C3.3519 3.65328 3.00001 4.81331 3.00001 6C3.0016 7.59081 3.63425 9.11602 4.75912 10.2409C5.884 11.3658 7.4092 11.9984 9.00001 12ZM9.00001 2C9.79113 2 10.5645 2.2346 11.2223 2.67412C11.8801 3.11365 12.3928 3.73836 12.6955 4.46927C12.9983 5.20017 13.0775 6.00444 12.9232 6.78036C12.7688 7.55629 12.3878 8.26902 11.8284 8.82843C11.269 9.38784 10.5563 9.7688 9.78037 9.92314C9.00445 10.0775 8.20018 9.99827 7.46927 9.69552C6.73837 9.39277 6.11366 8.88008 5.67413 8.22228C5.2346 7.56449 5.00001 6.79113 5.00001 6C5.00001 4.93914 5.42144 3.92172 6.17158 3.17158C6.92173 2.42143 7.93914 2 9.00001 2Z" fill="#031050" fill-opacity="0.5"/>
  <path d="M9 14.0007C6.61386 14.0033 4.32622 14.9524 2.63896 16.6396C0.951708 18.3269 0.00264685 20.6145 0 23.0007C0 23.2659 0.105357 23.5202 0.292893 23.7078C0.48043 23.8953 0.734784 24.0007 1 24.0007C1.26522 24.0007 1.51957 23.8953 1.70711 23.7078C1.89464 23.5202 2 23.2659 2 23.0007C2 21.1442 2.7375 19.3637 4.05025 18.0509C5.36301 16.7382 7.14348 16.0007 9 16.0007C10.8565 16.0007 12.637 16.7382 13.9497 18.0509C15.2625 19.3637 16 21.1442 16 23.0007C16 23.2659 16.1054 23.5202 16.2929 23.7078C16.4804 23.8953 16.7348 24.0007 17 24.0007C17.2652 24.0007 17.5196 23.8953 17.7071 23.7078C17.8946 23.5202 18 23.2659 18 23.0007C17.9974 20.6145 17.0483 18.3269 15.361 16.6396C13.6738 14.9524 11.3861 14.0033 9 14.0007Z" fill="#031050" fill-opacity="0.5"/>
</svg>
